<svg xmlns="http://www.w3.org/2000/svg" xmlns:xlink="http://www.w3.org/1999/xlink" version="1.1" id="Layer_1" x="0px" y="0px" width="100%" viewBox="0 0 1328 1370" enable-background="new 0 0 1328 1370" xml:space="preserve">
<path fill="#52157E" opacity="1.000000" stroke="none" d=" M1063.001221,687.835571   C1120.801514,687.835571 1178.102295,687.835571 1236.207397,687.835571   C1231.081421,710.553284 1226.084106,732.700134 1221.024292,755.124207   C1187.035156,755.124207 1153.412109,755.124207 1119.302979,755.124207   C1117.544189,762.746460 1115.841797,770.124084 1114.021240,778.014404   C1145.339600,778.014404 1176.127930,778.014404 1207.471436,778.014404   C1202.880981,798.132324 1198.406860,817.740356 1193.797729,837.939575   C1199.951416,837.939575 1205.691284,837.939575 1211.291748,837.939575   C1211.779541,843.791199 1209.434082,845.351013 1204.060059,845.295532   C1176.565674,845.012024 1149.066284,845.249451 1121.570190,845.068665   C1117.653198,845.042847 1116.094604,846.161621 1115.318848,850.028442   C1112.901489,862.078796 1110.070312,874.046204 1107.234619,886.786987   C1141.218994,886.786987 1174.571655,886.786987 1208.479248,886.786987   C1203.314209,909.566772 1198.314575,931.616638 1193.287964,953.785522   C1129.452148,953.785522 1066.013184,953.785522 1002.065735,953.785522   C1010.940552,915.244568 1019.749573,876.989685 1028.653931,838.320435   C1023.914490,838.320435 1019.688049,838.320435 1014.625916,838.320435   C1014.625916,844.548218 1015.335449,850.881775 1014.495667,857.002747   C1011.740356,877.084961 1002.194275,894.136902 989.496094,909.556152   C963.711426,940.866150 929.170288,954.456116 889.937195,958.047485   C852.357788,961.487305 816.742371,953.852112 782.729858,937.952393   C781.684631,937.463867 780.593689,937.072998 778.650208,936.280029   C777.609863,940.807678 776.480591,945.060242 775.696289,949.375549   C775.198181,952.116455 774.149475,953.235413 771.137756,953.230774   C710.643982,953.137085 650.149902,953.156189 589.655945,953.139526   C589.010681,953.139343 588.365356,952.967102 587.118591,952.789551   C596.048706,914.381836 604.933350,876.169800 613.962097,837.337891   C608.494446,837.337891 603.447327,837.337891 597.889771,837.337891   C598.180969,835.342224 598.287537,833.930115 598.600586,832.565308   C609.290955,785.951294 620.014954,739.344971 630.673462,692.723694   C631.317627,689.906189 631.894714,688.044495 635.622559,688.068787   C662.952026,688.247009 690.283203,688.161987 717.613831,688.178162   C718.572876,688.178711 719.531799,688.370178 720.931335,688.519653   C709.497498,737.928833 698.124146,787.076599 686.601685,836.868408   C692.044617,836.868408 697.076416,836.868408 703.046631,836.868408   C699.066101,853.511292 695.263855,869.408875 691.367737,885.698792   C723.461975,885.698792 755.039429,885.698792 787.185974,885.698792   C788.709717,878.883057 790.437866,871.966309 791.739990,864.970337   C792.351440,861.685425 793.755188,860.661194 797.040405,860.761475   C804.679810,860.994629 812.331055,860.835693 819.980835,860.835693   C825.236389,882.217163 841.881226,890.450623 860.283813,895.624268   C875.199524,899.817505 890.515015,900.670715 905.145996,893.288025   C910.595520,890.538330 914.603271,886.525879 916.973511,880.939636   C919.506348,874.970032 918.489258,870.449036 912.853027,867.201172   C907.267700,863.982727 901.295471,861.252014 895.207153,859.125549   C878.869690,853.419495 862.332031,848.287598 845.983643,842.611572   C841.953674,841.212341 837.825256,839.195251 834.664612,836.413818   C830.366333,832.631348 825.722534,831.328796 820.467529,832.237793   C813.505981,833.442078 809.728638,829.548340 806.205078,824.555054   C795.778320,809.779297 794.428589,793.320984 797.566223,776.255127   C805.863098,731.128296 834.292297,704.168213 876.793518,691.197021   C923.739441,676.869324 969.924683,681.511169 1015.125793,699.450378   C1017.900330,700.551514 1020.552429,701.961182 1023.701965,703.433105   C1021.708496,712.353455 1019.759949,721.240906 1017.731628,730.110107   C1014.574768,743.913879 1011.272888,757.685364 1008.247314,771.517578   C1007.590454,774.520630 1006.431824,775.676208 1003.295532,775.596985   C995.496399,775.400085 987.688904,775.532166 979.634338,775.532166   C978.726868,765.352905 971.948181,759.949280 964.215637,755.748718   C947.297852,746.558350 929.236206,742.691528 910.219849,747.027161   C905.134766,748.186523 899.902954,751.099609 896.020508,754.621033   C888.672607,761.285828 889.709961,769.627075 898.335205,774.353027   C904.398193,777.675049 911.128967,779.890259 917.729797,782.096130   C933.186279,787.261169 949.026611,791.400452 964.175293,797.325928   C977.426208,802.509033 988.577759,811.031006 994.390564,824.898621   C995.395752,827.296509 996.248596,831.212952 997.867493,831.613098   C1001.951843,832.622681 1006.458923,832.290283 1010.734985,831.869507   C1011.676453,831.776917 1012.738281,829.176453 1013.110901,827.582703   C1021.111511,793.356262 1029.024414,759.109253 1036.947998,724.864807   C1039.502319,713.825256 1042.143799,702.804138 1044.514038,691.725037   C1045.162476,688.694336 1046.399658,687.579773 1049.513428,687.769775   C1053.828003,688.033081 1058.170898,687.835693 1063.001221,687.835571  z"/>
<path fill="#A4862F" opacity="1.000000" stroke="none" d=" M434.264648,569.731262   C414.198273,556.267944 395.922058,541.326355 382.228424,521.586243   C370.752960,505.043701 362.336395,487.213898 362.967743,466.436310   C363.702789,442.247284 375.866302,424.712280 395.620575,411.810669   C407.366699,404.139252 420.352112,399.651520 434.020996,396.922211   C434.965179,396.733704 435.857178,396.283783 437.379608,395.738159   C432.189362,387.474792 427.204651,379.495972 422.176941,371.544342   C415.240112,360.573364 408.175293,349.681549 401.386261,338.620148   C399.795349,336.028046 398.065735,335.009430 395.050568,334.878540   C356.148438,333.189484 319.547638,322.924561 285.381653,304.373749   C264.778595,293.187103 245.941574,279.550110 232.136353,260.144592   C222.134155,246.084885 215.385910,230.874466 219.642365,213.029938   C223.506241,196.831268 234.915222,186.994400 249.080322,179.905350   C272.138885,168.365509 296.870544,166.498535 322.080261,167.883270   C352.167816,169.535904 380.920776,176.811111 408.403107,189.035873   C412.488281,190.853027 415.353455,190.987030 419.231415,188.241791   C447.107849,168.507935 475.193451,149.069550 503.558533,129.296326   C496.997620,124.416016 490.539246,120.088577 484.625641,115.113571   C472.461151,104.879784 461.144073,93.820801 456.327026,77.994804   C451.707458,62.817585 457.890533,48.659477 473.087463,42.451118   C482.043701,38.792240 491.830383,36.053257 501.433228,35.291706   C534.630554,32.659008 566.212219,40.103390 596.720215,52.849792   C614.617676,60.327454 631.714539,69.216705 646.842224,81.465324   C652.511108,86.055283 657.580627,91.379532 663.038879,96.239403   C664.421509,97.470482 666.178833,98.897606 667.878540,99.063896   C697.044617,101.917152 726.228210,104.591698 755.410706,107.275894   C756.506592,107.376701 757.630005,107.178917 759.245056,107.093636   C758.145569,103.899933 757.040100,101.149719 756.249146,98.311821   C752.688538,85.536163 757.709656,75.412415 769.954773,69.872444   C783.734253,63.638248 798.264587,63.798958 812.651001,65.574661   C852.995178,70.554321 889.239990,86.138672 921.794739,110.202888   C934.129761,119.320824 945.336487,129.829041 952.425659,143.864609   C962.134949,163.087601 955.904602,177.350372 935.249878,183.364548   C933.833618,183.776947 932.397644,184.121857 930.334534,184.665939   C931.233032,185.941360 931.796143,187.050125 932.634216,187.881760   C939.728882,194.921448 946.815002,201.972473 954.062317,208.852982   C955.252625,209.983093 957.177063,210.776810 958.831177,210.917999   C1009.613220,215.251999 1053.140991,236.154877 1091.296021,269.098145   C1102.297974,278.597290 1111.797119,289.555359 1118.115845,302.829773   C1120.098389,306.994904 1121.631714,311.515381 1122.506470,316.040283   C1125.393677,330.975128 1118.062500,343.026276 1102.789795,348.699615   C1088.483398,354.013916 1073.701782,353.590790 1058.895874,351.617188   C1040.140991,349.117279 1022.335938,343.245697 1004.941406,335.994781   C1003.910828,335.565186 1002.810669,335.302246 1001.362366,334.840393   C983.968567,367.144043 966.674622,399.262238 949.230225,431.659821   C957.165100,437.204315 964.975830,442.238831 972.323486,447.876770   C993.163818,463.867645 1010.971191,482.528473 1022.308899,506.633057   C1027.633789,517.954102 1030.799194,529.834595 1029.444458,542.391602   C1027.094604,564.174011 1013.440247,576.800537 993.926880,583.811340   C974.474304,590.800415 954.301880,590.557312 934.206299,587.537170   C892.631409,581.289001 855.594116,564.119324 822.762024,538.327026   C810.829163,528.952759 800.770996,517.160339 790.105408,506.229340   C787.711609,503.776001 785.672974,502.544434 782.077881,502.623535   C751.770508,503.290497 721.457642,503.723236 691.145325,504.144348   C681.506592,504.278259 671.864380,504.165253 661.397888,504.165253   C662.776184,510.195526 664.117798,515.067444 664.983643,520.022522   C669.259827,544.492798 662.318665,565.207520 643.418823,581.447144   C625.164917,597.131714 603.187927,603.667175 579.723816,606.017944   C527.048401,611.295166 479.290771,596.695190 434.264648,569.731262  M520.179626,576.357117   C545.187256,581.882690 569.885498,580.581238 593.884766,571.771057   C627.889526,559.287720 640.468811,527.998596 624.728149,495.347961   C613.469849,471.995148 594.455811,455.958618 572.786072,442.827118   C548.641052,428.195618 522.343567,419.881470 494.266815,417.079620   C471.053223,414.763153 448.681854,417.364594 428.014404,428.904816   C409.288635,439.360779 399.081116,455.055603 400.270294,477.019867   C400.955231,489.671448 405.864136,501.050476 412.968231,511.259033   C438.854767,548.457581 476.537140,566.584045 520.179626,576.357117  M659.702332,316.313782   C660.696594,315.452698 661.690796,314.591644 662.848572,313.588959   C661.067810,312.445343 659.689453,311.518494 658.271851,310.656250   C643.995911,301.973572 630.396545,292.334900 619.142761,279.911713   C607.925049,267.528320 608.166931,267.578583 591.611450,266.945099   C564.668152,265.914032 537.742798,264.423218 510.804443,263.250885   C504.571716,262.979645 498.317139,263.210846 491.705597,263.210846   C492.057281,264.767395 492.329834,266.039246 492.632721,267.303833   C495.196716,278.009247 494.822540,288.447357 489.615936,298.377350   C481.788452,313.305969 468.696411,321.710022 453.316071,326.977386   C445.831390,329.540771 438.100189,331.384338 430.359314,333.588257   C430.608704,334.128204 430.814117,334.765198 431.166046,335.307068   C443.222382,353.869781 455.235168,372.461578 467.474152,390.903229   C468.413666,392.318970 470.941620,393.348846 472.767548,393.406311   C495.216919,394.112610 517.108826,397.877594 538.367249,405.107391   C548.087524,408.413116 557.681580,412.089874 567.064697,415.500885   C597.875916,382.525360 628.566467,349.678986 659.702332,316.313782  M766.368896,446.846375   C768.934143,420.088226 786.696655,407.614471 810.580017,400.610474   C809.644714,399.293365 809.054688,398.330322 808.338257,397.472961   C796.596924,383.423431 784.550049,369.615814 773.208191,355.251465   C767.543579,348.077393 761.769470,342.432465 751.863770,343.702087   C751.548218,343.742523 751.210571,343.586182 750.880493,343.542267   C731.495789,340.962189 712.778625,335.804321 694.611267,328.669250   C691.739685,327.541443 690.265442,328.098511 688.303650,330.305878   C665.836304,355.585266 643.245789,380.755188 620.700256,405.965149   C612.952087,414.628998 605.237488,423.322998 597.346680,432.183929   C598.676758,433.247559 599.652832,434.116547 600.714539,434.863861   C616.170898,445.743073 630.928650,457.512177 642.104370,472.893341   C646.518555,478.968567 650.975830,480.829010 658.465332,480.633362   C692.103210,479.754547 725.763367,479.723267 759.415649,479.399048   C763.649414,479.358246 767.883972,479.393463 771.320923,479.393463   C769.570679,468.232971 767.963440,457.984100 766.368896,446.846375  M978.220093,557.892334   C998.494019,546.951965 1002.950073,527.658447 995.718201,507.498138   C989.217285,489.375793 976.917358,475.338348 962.707825,463.123322   C937.005066,441.028442 907.471191,426.354370 873.876221,420.589874   C856.467590,417.602783 839.143311,417.423859 822.276306,423.980103   C805.045959,430.677551 795.739868,447.081787 798.732422,465.421661   C801.119324,480.050018 808.246887,492.326721 817.678162,503.299866   C843.461548,533.298645 876.191711,551.963013 914.426514,561.066284   C935.632629,566.115295 956.874634,567.320801 978.220093,557.892334  M257.679077,210.334885   C252.021957,219.107666 250.793549,228.476181 253.714706,238.484848   C258.263702,254.071060 268.490051,265.657471 280.907349,275.151886   C318.264862,303.715942 360.666351,316.197479 407.553192,312.854492   C420.939270,311.900055 433.707184,308.259583 445.220367,300.876160   C460.338074,291.181122 465.993683,275.449921 460.290070,258.508881   C456.690186,247.816422 450.162262,239.027512 442.153809,231.383423   C426.026428,215.989868 406.978394,205.358490 386.093445,197.800781   C357.102173,187.309601 327.453491,182.622101 296.813751,188.177017   C281.601959,190.934891 267.738434,196.696594 257.679077,210.334885  M835.585327,299.018280   C834.642761,305.185120 834.737061,311.753876 832.535645,317.432678   C828.330383,328.280273 819.282043,334.680695 808.607239,338.583618   C802.759033,340.721893 796.666016,342.190399 790.486084,344.019318   C790.994080,344.933777 791.283325,345.735199 791.799866,346.343506   C805.693970,362.704803 819.551331,379.098419 833.626038,395.303192   C834.907959,396.779205 837.596008,397.690521 839.653687,397.731567   C855.058533,398.038849 870.193542,400.191406 884.933716,404.545013   C896.869873,408.070465 908.605652,412.274109 921.160645,416.417999   C939.090637,385.033844 957.217773,353.304626 975.469910,321.356659   C958.799133,311.275635 943.396484,300.217499 930.339233,286.266785   C927.540283,283.276367 924.614685,282.220978 920.768860,282.077393   C907.295959,281.574280 893.830811,280.866333 880.361389,280.267365   C863.414246,279.513763 846.465698,278.790833 829.539551,278.055603   C831.535522,284.876282 833.479004,291.517700 835.585327,299.018280  M765.748230,237.721497   C740.286011,221.366165 712.693787,210.861053 682.428650,208.288849   C668.740601,207.125519 655.167725,208.136536 642.334412,214.013275   C627.646790,220.739166 621.093628,234.004517 626.212158,249.201645   C628.403137,255.706696 631.851562,262.066559 635.934143,267.603577   C647.818909,283.722443 663.790588,295.124603 681.362854,304.288940   C708.190613,318.280243 736.435791,326.750427 767.080994,324.938934   C777.348083,324.332031 787.379883,322.143768 795.776672,315.961517   C809.465393,305.882996 811.504089,289.985474 802.203552,274.235931   C793.274170,259.115021 780.696045,247.775574 765.748230,237.721497  M572.114990,157.391525   C559.091248,152.936081 546.025024,148.598495 533.075745,143.936172   C530.115234,142.870239 527.994080,142.723099 525.309631,144.687210   C503.636932,160.544617 481.842194,176.235199 460.103729,192.002930   C453.862274,196.530090 447.682953,201.142929 440.454437,206.468460   C441.864471,207.147049 442.520447,207.368042 443.072479,207.742325   C456.763245,217.024582 469.412140,227.429276 479.334198,240.867401   C480.267548,242.131424 482.253571,243.053131 483.873108,243.286880   C487.480438,243.807541 491.164673,243.801193 494.818451,243.993164   C518.908875,245.258957 542.992859,246.675842 567.093262,247.709885   C577.331421,248.149185 587.604187,247.783218 598.229736,247.783218   C593.892822,235.558197 593.795166,222.912903 602.491943,211.577560   C610.943970,200.561218 623.316895,196.155640 637.024719,192.883194   C628.837585,183.139053 621.183167,173.981781 613.433167,164.906189   C612.890137,164.270340 611.661499,164.105850 610.714050,163.946793   C598.112976,161.831421 585.505066,159.756226 572.114990,157.391525  M497.697968,53.981693   C494.074554,56.572697 489.859863,58.630390 486.945770,61.861176   C480.010345,69.550369 480.981323,78.290810 485.140442,87.018059   C490.994263,99.301399 500.778656,108.125542 511.627899,115.633934   C539.021057,134.591843 569.455261,145.458542 602.731567,147.725357   C615.598938,148.601898 628.430969,147.581863 640.244385,141.567947   C652.495544,135.331223 656.379150,123.960411 650.887207,111.330421   C646.736450,101.784828 640.101929,94.161987 632.167908,87.694870   C607.591919,67.662628 579.204956,56.230671 548.145386,50.965805   C531.358887,48.120354 514.702393,47.543194 497.697968,53.981693  M1090.253906,290.385651   C1086.171509,285.362152 1082.537231,279.878235 1077.930542,275.393219   C1055.501587,253.556458 1028.645508,239.390411 998.668396,230.988632   C984.444946,227.002167 969.952454,225.192856 955.226318,227.824829   C935.237610,231.397385 927.328735,246.360092 936.673218,264.265533   C940.617432,271.823303 945.737549,279.174561 951.767883,285.165283   C976.731689,309.964783 1007.037048,325.296753 1041.277222,332.715607   C1055.365112,335.768036 1069.659424,336.738312 1083.594360,331.264343   C1093.790771,327.258942 1099.252808,318.767822 1097.153564,308.052734   C1096.000488,302.167755 1092.899780,296.664368 1090.253906,290.385651  M800.443420,165.915237   C803.930481,162.137985 807.417603,158.360748 811.042969,154.433670   C796.605408,145.742828 783.256592,135.968491 771.663391,123.905853   C770.564941,122.763000 768.485596,122.198967 766.798401,122.040504   C741.950439,119.706886 717.093262,117.471237 692.234497,115.254257   C686.883545,114.777054 681.517822,114.465271 675.678894,114.042534   C676.192200,115.532974 676.460754,116.300995 676.721558,117.071632   C682.884277,135.279907 678.132629,147.762253 660.783447,156.182465   C653.479004,159.727570 645.344177,161.561600 637.247437,164.287735   C644.335754,172.628647 651.548706,181.289383 659.033447,189.708481   C659.989258,190.783615 662.349487,190.878464 664.080261,190.955795   C687.200439,191.988831 709.521118,196.840088 731.099487,205.082092   C739.112671,208.142792 746.941406,211.686478 754.545471,214.880203   C769.902893,198.492767 784.926941,182.460983 800.443420,165.915237  M815.888245,187.395676   C803.638062,201.118973 791.387878,214.842285 779.711243,227.923050   C790.410828,237.163849 801.109131,245.887329 811.138489,255.321899   C815.096802,259.045471 818.997253,260.702026 824.242615,260.919525   C843.865479,261.733337 863.475342,262.859589 883.092041,263.827545   C893.175537,264.325073 903.263367,264.735809 914.286621,265.227600   C908.350586,254.143646 904.351135,243.346161 908.913513,231.681519   C913.653870,219.562027 924.498230,215.211761 935.478821,212.443466   C927.358459,203.911072 919.382812,195.476074 911.305542,187.139526   C910.600769,186.412140 909.245911,186.067688 908.161560,185.991302   C883.813538,184.276138 860.686707,177.831238 838.451294,167.987579   C835.519470,166.689667 833.679626,167.278107 831.638367,169.703873   C826.708313,175.562546 821.484985,181.174393 815.888245,187.395676  M888.347656,101.051315   C868.699768,90.137207 847.978699,82.309998 825.605835,79.229271   C815.141663,77.788368 804.717407,77.419014 794.486267,80.681740   C780.345642,85.191200 775.688599,95.755836 782.094055,109.109787   C787.032593,119.405647 794.970459,127.302170 803.833862,134.131241   C827.821045,152.612869 854.781616,164.600418 884.704773,169.510300   C896.578064,171.458511 908.568848,171.925766 920.182007,167.719467   C931.871460,163.485535 936.625427,152.761429 931.121033,141.651917   C928.215454,135.787628 924.281616,130.268204 920.009888,125.280022   C911.386108,115.210068 900.259216,108.164093 888.347656,101.051315  z"/>
<path fill="#52167E" opacity="1.000000" stroke="none" d=" M594.864685,723.942749   C586.663696,760.071777 578.551208,795.793091 570.309998,832.081238   C575.704956,832.081238 580.484070,832.081238 585.537354,832.081238   C579.417236,871.576111 567.143738,907.350037 533.933105,932.247070   C516.098267,945.617371 495.808929,953.096436 473.862610,956.415649   C449.395752,960.116089 425.049011,960.167480 400.964813,953.906433   C363.713287,944.222412 344.009521,916.506653 347.754578,878.183044   C348.979858,865.644592 352.029541,853.282593 354.293182,840.848694   C354.791962,838.108948 355.495819,835.406555 356.220947,832.170776   C350.790833,832.170776 346.001251,832.170776 340.269379,832.170776   C351.217682,783.584717 362.033905,735.584961 372.910034,687.319275   C402.996948,687.319275 432.897217,687.319275 463.177643,687.319275   C452.254272,735.429443 441.377563,783.333862 430.343262,831.932495   C435.713562,831.932495 440.585205,831.932495 446.183472,831.932495   C444.877716,837.283752 443.529114,841.866028 442.671997,846.538391   C441.293518,854.053162 439.678864,861.592041 439.199677,869.186096   C438.675079,877.499695 439.480927,886.223083 448.640442,889.946533   C458.361237,893.898254 467.865356,892.075989 475.601807,884.959290   C479.310120,881.548096 482.921539,877.226501 484.628448,872.598633   C489.381897,859.710388 493.116089,846.446289 497.566284,832.336731   C490.891724,832.336731 485.835907,832.336731 479.978149,832.336731   C491.045013,783.606873 501.946167,735.606628 512.910278,687.329224   C542.984314,687.329224 572.884094,687.329224 603.175903,687.329224   C600.407166,699.520325 597.680176,711.527649 594.864685,723.942749  z"/>
<path fill="#52157E" opacity="1.000000" stroke="none" d=" M117.125427,829.184631   C127.733772,783.667786 138.319611,738.586609 148.661392,693.449585   C149.644638,689.158142 151.344391,688.039490 155.592346,688.062927   C188.742599,688.246155 221.894363,688.183716 255.045624,688.158997   C272.667542,688.145813 289.861053,690.405579 306.429840,696.812805   C333.810089,707.400818 348.953430,732.867065 344.617615,761.945679   C340.528839,789.367859 329.273438,813.458191 310.339050,833.846680   C309.661926,834.575745 309.046722,835.362305 307.718536,836.929199   C313.004211,836.929199 317.587128,836.929199 322.170044,836.929199   C291.261505,866.626282 252.949417,872.876709 212.384262,873.199341   C211.867981,875.250244 211.361023,877.132568 210.921448,879.030518   C205.584518,902.073792 200.169769,925.099792 195.016800,948.184204   C194.186020,951.905884 192.926636,953.301086 188.883118,953.269287   C162.896774,953.065063 136.908066,953.165100 110.920120,953.165039   C109.289093,953.165039 107.658066,953.164978 105.281410,953.164978   C114.157303,914.248474 122.878113,876.011902 131.728302,837.208069   C126.080803,837.208069 121.143814,837.208069 115.551376,837.208069   C116.114059,834.325439 116.574791,831.965210 117.125427,829.184631  M213.060089,800.456970   C212.638260,802.508606 212.216431,804.560303 211.660767,807.262878   C228.198029,806.247009 241.097733,800.148499 249.688416,786.297485   C253.288910,780.492310 254.280487,774.244263 251.841522,767.671509   C248.691650,759.182983 234.469193,752.771667 223.302628,754.944885   C219.957779,769.777954 216.593231,784.698425 213.060089,800.456970  z"/>
<path fill="#52167E" opacity="1.000000" stroke="none" d=" M145.992035,1174.539307   C132.375351,1174.539185 119.257210,1174.539185 105.198044,1174.539185   C111.035950,1148.694824 116.702568,1123.608765 122.466385,1098.092407   C118.898712,1097.927734 115.797272,1097.784546 112.063072,1097.612061   C113.747841,1090.222290 115.346786,1083.147095 116.975029,1076.078491   C122.545486,1051.895752 128.196640,1027.731079 133.621017,1003.515686   C134.366440,1000.187988 135.406357,998.857056 139.085190,998.900940   C157.080719,999.115479 175.080948,999.081787 193.077637,998.922791   C196.414856,998.893372 197.588638,999.943542 198.224777,1003.214783   C201.626511,1020.707642 205.304184,1038.146973 208.900360,1055.601929   C209.197433,1057.043823 209.597748,1058.464355 210.235275,1061.052734   C211.844696,1058.859253 212.917160,1057.512573 213.867645,1056.084717   C225.777390,1038.192505 237.613312,1020.250610 249.661484,1002.452271   C250.754410,1000.837769 253.171829,999.169128 254.994781,999.146057   C273.823059,998.906616 292.655579,998.996826 311.486908,999.016052   C312.286041,999.016846 313.084991,999.221375 314.289825,999.386719   C306.763153,1032.131226 299.282288,1064.676514 291.664948,1097.815430   C295.523529,1097.815430 298.633820,1097.815430 302.464264,1097.815430   C301.162811,1103.674072 300.034760,1108.964844 298.808777,1114.232666   C294.505096,1132.724731 290.103851,1151.194702 285.901093,1169.709717   C285.131989,1173.097900 283.981140,1174.699829 280.062653,1174.641968   C263.567993,1174.399048 247.067673,1174.544556 230.569427,1174.529175   C229.257324,1174.527954 227.945374,1174.383789 225.897980,1174.262573   C230.740784,1153.554565 235.509979,1133.161377 240.279160,1112.768311   C239.861664,1112.594360 239.444183,1112.420288 239.026688,1112.246338   C234.741730,1118.918701 230.281586,1125.487671 226.252579,1132.311157   C224.485168,1135.304443 222.450348,1136.297119 219.056290,1136.243408   C206.913376,1136.051025 194.765579,1136.168091 182.148239,1136.168091   C180.593933,1128.044189 179.088074,1120.173462 177.582214,1112.302734   C177.229736,1112.274048 176.877274,1112.245361 176.524796,1112.216553   C176.036789,1113.855957 175.464813,1115.475464 175.073700,1117.137695   C170.953613,1134.647339 166.758545,1152.140381 162.844971,1169.696289   C161.993774,1173.514771 160.406418,1175.016968 156.481491,1174.609741   C153.184265,1174.267578 149.823334,1174.539429 145.992035,1174.539307  z"/>
<path fill="#52167E" opacity="1.000000" stroke="none" d=" M601.959106,1049.954712   C602.946167,1053.102173 603.832275,1055.865479 604.718384,1058.628784   C605.097290,1058.587646 605.476196,1058.546509 605.855103,1058.505249   C608.553467,1047.064941 611.258484,1035.626099 613.947876,1024.183594   C615.661926,1016.890869 617.231934,1009.560303 619.164917,1002.326477   C619.514099,1001.019775 621.299194,999.157837 622.441772,999.143188   C638.763245,998.934326 655.088257,998.994568 671.412415,999.007812   C672.561401,999.008789 673.710327,999.150391 675.479004,999.267578   C667.913330,1032.026123 660.404846,1064.536865 652.749695,1097.682739   C656.375916,1097.682739 659.443054,1097.682739 663.422302,1097.682739   C661.875610,1104.433960 660.483276,1110.489380 659.101501,1116.547363   C655.029175,1134.401123 650.873718,1152.236816 646.967346,1170.126831   C646.216553,1173.565430 644.814819,1174.666260 641.294678,1174.621948   C625.972412,1174.429443 610.645386,1174.455444 595.322205,1174.607910   C592.080627,1174.640137 590.698303,1173.566284 589.766785,1170.438354   C583.019348,1147.782227 576.095703,1125.178101 569.117798,1102.591675   C568.599854,1100.915283 567.223022,1099.504517 566.245422,1097.970215   C565.484314,1099.494507 564.392273,1100.940674 564.011963,1102.554688   C558.742920,1124.915894 553.463196,1147.275879 548.478333,1169.701172   C547.603271,1173.637817 545.953735,1174.676025 542.127441,1174.623779   C527.138672,1174.418945 512.145447,1174.548340 497.153900,1174.527710   C495.559418,1174.525513 493.965179,1174.353760 491.842285,1174.229736   C497.759521,1148.611938 503.549286,1123.546021 509.428406,1098.093262   C505.810211,1097.924927 502.700775,1097.780151 498.893280,1097.603027   C500.960358,1088.591431 502.948730,1079.910034 504.943237,1071.230103   C510.125427,1048.677490 515.409180,1026.147339 520.395264,1003.551514   C521.214722,999.838135 522.717163,998.879089 526.346069,998.914490   C544.833923,999.095032 563.325562,999.099976 581.813232,998.907288   C585.296509,998.870972 586.688904,999.942444 587.665222,1003.251587   C592.234680,1018.738953 597.099060,1034.139282 601.959106,1049.954712  z"/>
<path fill="#52167E" opacity="1.000000" stroke="none" d=" M1213.725830,1133.259644   C1221.216064,1147.165283 1228.531616,1160.745361 1236.211548,1175.001709   C1229.930176,1175.001709 1224.483521,1175.001709 1219.036743,1175.001709   C1203.044189,1175.001709 1187.048096,1174.814331 1171.061646,1175.124512   C1166.692627,1175.209351 1164.678467,1173.689941 1162.816895,1169.921753   C1155.146362,1154.396240 1147.119629,1139.046875 1139.211548,1123.639038   C1138.469238,1122.192871 1137.641602,1120.790405 1136.063477,1117.940796   C1131.498169,1137.822754 1127.255371,1156.300049 1123.008667,1174.793945   C1103.145020,1174.793945 1083.691772,1174.793945 1063.690552,1174.793945   C1069.808472,1148.100952 1075.854736,1121.720825 1082.019043,1094.825684   C1078.513062,1094.634644 1075.424561,1094.466309 1071.612061,1094.258545   C1072.564575,1089.759644 1073.392700,1085.590576 1074.333862,1081.447144   C1080.271240,1055.307617 1086.305054,1029.189697 1092.108276,1003.020447   C1092.946899,999.239136 1094.448853,997.988220 1098.380127,998.066528   C1121.850708,998.533997 1145.359741,998.082458 1168.786987,999.283752   C1180.090088,999.863403 1191.617188,1002.246643 1202.383179,1005.807617   C1222.773438,1012.551880 1230.780762,1028.858887 1225.408081,1049.699097   C1221.175781,1066.115967 1211.199829,1078.855469 1199.153320,1090.231934   C1198.080566,1091.244995 1196.983521,1092.232056 1195.021484,1094.037598   C1198.171387,1094.312012 1200.440063,1094.509766 1203.995361,1094.819580   C1200.913208,1097.092529 1198.755371,1098.683838 1196.168091,1100.591797   C1201.947876,1111.345459 1207.749634,1122.139771 1213.725830,1133.259644  M1163.430420,1057.760742   C1165.642090,1050.755249 1163.877686,1046.481445 1157.073242,1044.051880   C1153.547852,1042.792969 1149.681519,1042.361816 1145.926025,1041.953125   C1144.824097,1041.833008 1142.741821,1042.859375 1142.520142,1043.722778   C1140.152100,1052.947266 1138.067871,1062.244507 1135.888306,1071.596802   C1146.901001,1072.520752 1157.504028,1067.251343 1163.430420,1057.760742  z"/>
<path fill="#53167E" opacity="1.000000" stroke="none" d=" M366.443787,1177.684326   C332.277710,1168.262329 318.494232,1143.858765 322.735992,1100.006348   C318.858154,1100.006348 315.014832,1100.006348 310.413483,1100.006348   C311.386139,1094.285034 311.852692,1089.316895 313.101227,1084.553833   C321.892578,1051.015625 339.463562,1023.777649 370.895660,1007.374329   C393.553070,995.550293 417.870880,992.719360 442.763916,998.253906   C471.750183,1004.698608 489.190277,1026.717041 489.385040,1058.051514   C489.461700,1070.385376 486.472717,1082.740601 484.830444,1095.079590   C484.641907,1096.495972 484.135071,1097.870117 483.619781,1099.869141   C487.978821,1099.869141 491.736420,1099.869141 495.629608,1099.869141   C480.631042,1150.450073 432.671204,1191.135742 366.443787,1177.684326  M376.354340,1077.942017   C374.723480,1084.843994 373.092651,1091.746094 371.325623,1099.224609   C376.132690,1099.463745 379.991302,1099.655640 382.932373,1099.802002   C383.974091,1108.253906 384.001343,1116.206299 386.079590,1123.580688   C389.458740,1135.571289 399.600891,1139.404907 410.430756,1133.317505   C423.379120,1126.039307 429.665253,1113.705933 435.022461,1099.469971   C430.487000,1099.469971 426.781342,1099.469971 422.583160,1099.469971   C423.364746,1096.420898 424.213013,1094.216675 424.463287,1091.946655   C425.625061,1081.409302 427.435760,1070.851807 427.412994,1060.305054   C427.395386,1052.191162 424.384705,1044.141235 415.516785,1041.195190   C406.646637,1038.248291 399.700745,1042.913574 393.566223,1048.702271   C385.232330,1056.566162 380.393585,1066.582397 376.354340,1077.942017  z"/>
<path fill="#53167E" opacity="1.000000" stroke="none" d=" M900.128662,1143.795532   C894.674683,1129.495239 894.799927,1115.079712 896.531677,1099.992310   C892.498474,1099.992310 888.749207,1099.992310 884.130981,1099.992310   C885.127502,1094.335938 885.664185,1089.263062 886.938477,1084.382690   C895.651062,1051.013062 913.140564,1023.908752 944.362366,1007.575623   C968.127136,995.143433 993.541077,992.206238 1019.512878,999.119812   C1045.341675,1005.995361 1061.007690,1025.895508 1063.010620,1052.665527   C1064.103516,1067.271606 1062.406738,1081.578979 1058.421997,1095.643799   C1058.112305,1096.736572 1057.883423,1097.852173 1057.454468,1099.631348   C1061.528564,1099.631348 1065.235718,1099.631348 1070.002319,1099.631348   C1067.797852,1105.242065 1066.205322,1110.099243 1064.037598,1114.684448   C1047.963867,1148.684204 1022.536743,1171.500366 984.945007,1178.558228   C968.511414,1181.643677 951.798645,1181.502319 935.529236,1176.281372   C918.877014,1170.937500 906.755127,1160.641602 900.128662,1143.795532  M957.570190,1112.934082   C958.254700,1116.521484 958.546021,1120.240479 959.695190,1123.672241   C963.634216,1135.434814 973.518860,1139.401733 984.238037,1133.309814   C997.144897,1125.974731 1003.457825,1113.689331 1008.782532,1099.430908   C1004.248596,1099.430908 1000.557617,1099.430908 996.935608,1099.430908   C998.561035,1090.205322 1000.427490,1081.752075 1001.454285,1073.198120   C1002.537231,1064.175659 1002.083679,1055.163208 996.912720,1047.148804   C993.392517,1041.692871 987.512146,1038.740601 981.459656,1040.952637   C976.016296,1042.942139 970.459106,1045.941650 966.321655,1049.920044   C956.316223,1059.540771 951.330627,1072.160156 948.054199,1085.430054   C946.957092,1089.873535 946.331543,1094.433350 945.361206,1099.632324   C950.004333,1099.632324 953.761475,1099.632324 957.473694,1099.632324   C957.473694,1104.156250 957.473694,1108.104980 957.570190,1112.934082  z"/>
<path fill="#53177E" opacity="1.000000" stroke="none" d=" M793.469849,1058.376953   C794.669983,1053.120239 795.755737,1048.265137 796.955078,1042.901978   C781.295532,1042.901978 766.022949,1042.901978 750.208923,1042.901978   C750.530334,1040.988037 750.692932,1039.577759 751.009705,1038.203125   C753.776306,1026.197388 756.593811,1014.203186 759.336609,1002.191895   C759.893372,999.753479 760.493469,998.075073 763.730835,998.082397   C812.705627,998.193115 861.680725,998.162292 910.655762,998.181396   C911.296509,998.181641 911.937134,998.398804 913.133362,998.615234   C910.900085,1008.625671 908.751709,1018.495483 906.479492,1028.336792   C905.400085,1033.011719 905.497437,1039.525146 902.494690,1041.766113   C899.226318,1044.205444 892.981445,1042.778687 888.032532,1042.818481   C877.563843,1042.902588 867.094055,1042.844116 856.267822,1042.844116   C854.310120,1051.570801 852.417786,1059.974731 850.540894,1068.381958   C848.662354,1076.796509 846.799316,1085.214478 844.813904,1094.151001   C848.350647,1094.354858 851.418518,1094.531738 855.115479,1094.744751   C849.148254,1121.584351 843.275574,1147.998657 837.344055,1174.677979   C817.551880,1174.677979 797.974792,1174.677979 777.611694,1174.677979   C783.632568,1148.194092 789.618958,1121.862061 795.764282,1094.831055   C792.099854,1094.643677 788.927002,1094.481445 785.237732,1094.292847   C788.032959,1082.063599 790.694153,1070.421021 793.469849,1058.376953  z"/>
<path fill="#53167E" opacity="1.000000" stroke="none" d=" M682.799927,1052.685059   C686.988831,1034.623779 691.081970,1016.969421 695.223328,999.107239   C715.047607,999.107239 734.625000,999.107239 754.725464,999.107239   C747.151489,1032.134155 739.652283,1064.835327 732.018799,1098.121826   C736.025757,1098.121826 739.616699,1098.121826 743.850281,1098.121826   C741.458923,1108.598633 739.225769,1118.449463 736.960083,1128.292847   C733.674744,1142.566162 730.435059,1156.850952 726.964050,1171.079102   C726.601807,1172.564209 724.824951,1174.818115 723.680908,1174.832397   C704.887207,1175.067017 686.089783,1174.998901 666.588013,1174.998901   C672.485535,1149.290039 678.265381,1124.094116 684.190186,1098.266113   C680.066833,1098.266113 676.487244,1098.266113 672.224548,1098.266113   C675.820007,1082.767212 679.262146,1067.929565 682.799927,1052.685059  z"/>
<path fill="#E26FA0" opacity="1.000000" stroke="none" d=" M465.070312,1258.259521   C468.824371,1257.916138 469.479553,1259.409912 468.673126,1262.431885   C465.632721,1273.825562 462.611084,1285.227173 459.832428,1296.686401   C458.871338,1300.649902 456.336853,1300.795166 453.114227,1300.805786   C449.739502,1300.816895 447.071350,1300.741943 446.002869,1296.523315   C444.394684,1290.174194 442.149658,1283.986572 438.877380,1277.599365   C438.243286,1279.147583 437.507965,1280.663086 436.994659,1282.250366   C435.615173,1286.516235 434.074554,1290.754395 433.080688,1295.113647   C432.098206,1299.423340 429.921661,1300.917236 425.446777,1300.904175   C421.258362,1300.892090 419.594238,1299.317261 418.655853,1295.507324   C415.998413,1284.717896 413.036041,1274.004028 410.263458,1263.242310   C409.907715,1261.861572 409.964447,1260.374512 409.836182,1259.001709   C417.474365,1257.355835 417.866821,1257.570801 419.623901,1264.227173   C421.598999,1271.709473 423.554291,1279.197266 425.518188,1286.682617   C425.975372,1286.767456 426.432556,1286.852173 426.889740,1286.937012   C428.568634,1281.580566 430.263031,1276.229004 431.920288,1270.865967   C432.851379,1267.852661 433.876251,1264.855835 434.572906,1261.786499   C435.218628,1258.941650 436.956573,1257.558838 439.539490,1258.392822   C441.234833,1258.940186 443.366913,1260.432129 443.876434,1261.972900   C446.671539,1270.424805 449.025848,1279.022583 452.707947,1287.726318   C454.490448,1280.981689 456.268738,1274.235962 458.058136,1267.493164   C458.568909,1265.568481 459.242035,1263.676880 459.609497,1261.726562   C460.160095,1258.803955 461.967712,1257.952026 465.070312,1258.259521  z"/>
<path fill="#E26E9F" opacity="1.000000" stroke="none" d=" M787.021362,1276.002197   C787.021362,1282.664551 787.163391,1288.832642 786.936096,1294.987061   C786.866516,1296.871582 786.024536,1300.172119 785.121948,1300.321533   C781.893250,1300.855957 778.025452,1302.097900 775.620667,1298.261230   C772.087158,1292.623413 768.627441,1286.939331 765.098511,1281.298584   C763.543213,1278.812500 761.895264,1276.384521 760.289368,1273.930176   C759.787476,1274.018433 759.285522,1274.106812 758.783630,1274.195068   C758.783630,1277.536621 758.783630,1280.878174 758.783630,1284.219727   C758.783630,1287.384399 758.784668,1290.549194 758.783386,1293.713867   C758.780396,1301.285645 758.728516,1301.328125 750.149170,1300.270386   C750.058105,1298.306519 749.884766,1296.228882 749.878540,1294.150757   C749.849121,1284.323486 749.737549,1274.493408 749.966797,1264.671387   C750.016174,1262.555542 750.962463,1258.972656 752.173035,1258.656128   C755.534790,1257.776978 759.354736,1257.349121 761.760498,1261.550415   C765.228210,1267.606445 769.081970,1273.442871 772.824036,1279.339355   C774.053528,1281.276733 775.447876,1283.109497 777.935852,1284.871826   C778.029358,1283.045532 778.192322,1281.219604 778.203552,1279.392700   C778.239441,1273.563232 778.325989,1267.730713 778.179443,1261.904663   C778.093323,1258.484863 780.066162,1258.237549 782.679932,1258.225586   C785.369019,1258.213257 787.199097,1258.658325 787.063599,1262.012817   C786.882263,1266.502686 787.020386,1271.005371 787.021362,1276.002197  z"/>
<path fill="#E26E9F" opacity="1.000000" stroke="none" d=" M886.781555,1296.594849   C886.040588,1303.466064 881.545227,1299.835449 877.865356,1300.690063   C877.865356,1292.891479 877.865356,1285.626709 877.865356,1278.361938   C877.865356,1273.703735 877.667725,1269.033203 877.956665,1264.393066   C878.083130,1262.362549 878.859009,1258.923096 879.937622,1258.669800   C883.328430,1257.874023 887.220337,1257.227173 889.658997,1261.323242   C892.972107,1266.888184 896.483398,1272.335938 899.941345,1277.813843   C901.491089,1280.268921 903.117615,1282.675537 904.709290,1285.104004   C905.211975,1284.991211 905.714600,1284.878296 906.217285,1284.765503   C906.217285,1277.412598 906.101379,1270.056396 906.314941,1262.709717   C906.357666,1261.240845 907.319275,1258.950928 908.436157,1258.511597   C912.682007,1256.841309 914.998901,1258.651978 915.011719,1263.187378   C915.041199,1273.668335 915.123535,1284.151123 914.931702,1294.628662   C914.894958,1296.635254 913.957336,1300.174561 912.992188,1300.334717   C909.639038,1300.890869 905.763977,1302.021362 903.275940,1297.745605   C899.184143,1290.713745 894.760986,1283.874268 890.449341,1276.971313   C889.785461,1275.908447 888.971802,1274.939087 888.227478,1273.926392   C887.746033,1273.999512 887.264526,1274.072510 886.783081,1274.145508   C886.783081,1281.476929 886.783081,1288.808228 886.781555,1296.594849  z"/>
<path fill="#E26E9F" opacity="1.000000" stroke="none" d=" M817.634094,1300.721680   C804.978699,1300.750854 804.978699,1300.750854 804.978760,1288.334595   C804.978760,1279.835327 805.111572,1271.332886 804.914917,1262.838135   C804.834167,1259.347412 806.021179,1257.965088 809.509094,1258.233154   C813.980164,1258.576782 818.492981,1258.470825 822.944275,1258.957153   C832.657043,1260.017822 837.458374,1264.516724 839.549316,1274.073730   C841.877808,1284.717163 837.968323,1295.060913 829.752014,1298.394775   C826.145691,1299.858154 821.995117,1299.980103 817.634094,1300.721680  M813.890686,1284.442383   C813.890686,1287.053467 813.890686,1289.664551 813.890686,1292.482544   C820.091309,1293.240723 825.478760,1293.305542 829.130737,1287.953003   C832.034851,1283.696533 831.486084,1273.933594 828.317627,1269.862549   C825.625854,1266.404053 819.808838,1265.234009 813.890442,1267.124878   C813.890442,1272.500000 813.890442,1277.978271 813.890686,1284.442383  z"/>
<path fill="#E26E9F" opacity="1.000000" stroke="none" d=" M972.806519,1282.573608   C971.103638,1292.495239 965.801208,1298.598877 956.164673,1300.432007   C947.938416,1301.997070 940.604980,1300.240234 935.025696,1293.642944   C928.674316,1286.132935 928.413879,1274.919556 934.158203,1266.279907   C938.691956,1259.460938 949.201660,1256.282349 958.304016,1258.977173   C967.499512,1261.699829 972.888733,1269.293945 972.962463,1279.656128   C972.968384,1280.485229 972.879272,1281.315063 972.806519,1282.573608  M963.928711,1282.921753   C963.962830,1280.931763 964.173828,1278.926147 963.998413,1276.954834   C963.442566,1270.706909 958.967468,1266.551147 952.442200,1266.041016   C946.378113,1265.566772 940.709534,1269.499023 939.284241,1275.168823   C937.409180,1282.627686 940.670349,1289.902222 946.872681,1292.096436   C954.398254,1294.758911 960.263916,1291.865601 963.928711,1282.921753  z"/>
<path fill="#E26EA0" opacity="1.000000" stroke="none" d=" M650.214050,1263.317383   C649.649963,1258.906616 651.745422,1258.159790 655.206848,1258.178955   C658.901489,1258.199463 659.071777,1260.237915 659.053101,1263.022217   C658.979492,1273.997559 658.938416,1284.974731 659.075378,1295.948853   C659.115662,1299.169434 658.470093,1300.861084 654.735352,1300.837036   C651.244812,1300.814697 649.933777,1299.639404 650.165588,1296.166504   C650.386536,1292.855469 650.397583,1289.500122 650.093201,1286.201904   C649.994385,1285.131348 648.657654,1283.360107 647.803772,1283.309204   C643.049072,1283.026123 638.268738,1283.173340 632.913208,1283.173340   C632.913208,1288.033691 632.751648,1292.317749 632.964050,1296.583130   C633.135864,1300.033691 631.488342,1300.798706 628.449280,1300.801147   C625.436096,1300.803589 623.867004,1300.113403 623.917297,1296.632568   C624.080566,1285.326538 624.098083,1274.014526 623.907654,1262.709473   C623.846619,1259.086182 625.269531,1258.166382 628.606873,1258.178711   C631.808105,1258.190674 633.131165,1259.210571 632.963745,1262.516479   C632.754456,1266.650391 632.913452,1270.802979 632.913452,1275.402466   C638.590393,1275.402466 643.954346,1275.402466 650.213623,1275.402466   C650.213623,1271.577637 650.213623,1267.676514 650.214050,1263.317383  z"/>
<path fill="#E26D9F" opacity="1.000000" stroke="none" d=" M603.017273,1261.851318   C605.458069,1264.642456 607.619019,1267.192261 610.033936,1270.041748   C605.461487,1272.670044 602.586548,1274.465942 598.873718,1269.910156   C594.524963,1264.573853 586.119507,1264.865356 581.405334,1269.517090   C576.638550,1274.220825 576.395264,1284.560669 580.942627,1289.185791   C585.694763,1294.019165 594.065247,1294.735107 598.411621,1289.430420   C602.396240,1284.567261 605.521484,1286.324219 609.401245,1288.379150   C605.635437,1301.579468 585.734314,1304.766968 576.084961,1296.294189   C568.008484,1289.202393 566.296692,1276.609253 572.060547,1267.146484   C577.047058,1258.960205 589.216431,1255.651978 599.179321,1259.805908   C600.403381,1260.316162 601.553223,1261.004272 603.017273,1261.851318  z"/>
<path fill="#E26EA0" opacity="1.000000" stroke="none" d=" M505.557922,1260.433105   C510.427399,1273.703003 515.138245,1286.608521 519.844604,1299.501587   C513.422913,1302.061279 511.823914,1301.463501 509.701996,1295.407715   C508.805756,1292.849976 507.576447,1291.556152 504.699127,1291.849365   C502.227020,1292.101440 499.686493,1292.113525 497.215759,1291.854614   C492.657806,1291.376709 489.865784,1292.508423 488.644348,1297.594604   C487.382568,1302.848633 482.833374,1300.212036 478.673431,1300.556885   C482.207520,1290.837158 485.528015,1281.695557 488.856110,1272.556763   C489.936493,1269.590088 491.070312,1266.642578 492.120850,1263.665527   C494.254761,1257.618164 499.761078,1256.114502 505.557922,1260.433105  M494.249268,1280.985962   C493.593903,1283.290283 493.858734,1284.904907 496.843933,1284.804077   C499.432800,1284.716553 502.027008,1284.785889 505.858643,1284.785889   C503.799377,1278.639648 502.056061,1273.436401 500.312744,1268.233154   C499.854034,1268.259277 499.395325,1268.285400 498.936646,1268.311401   C497.462158,1272.274658 495.987671,1276.237915 494.249268,1280.985962  z"/>
<path fill="#E26EA0" opacity="1.000000" stroke="none" d=" M732.690796,1300.730469   C728.946045,1301.280273 726.883118,1300.014526 726.228760,1296.578491   C725.466431,1292.576538 722.932922,1291.269653 719.050903,1291.864380   C717.589172,1292.088379 716.042969,1292.063965 714.572205,1291.871094   C709.600037,1291.218872 706.299805,1292.178101 704.764526,1297.958374   C703.417908,1303.027954 698.920044,1299.994141 694.839844,1300.647217   C698.793091,1289.863159 702.365112,1280.118164 705.937744,1270.373657   C706.851135,1267.882202 707.993774,1265.447754 708.625854,1262.887085   C709.487793,1259.394531 711.363098,1258.067261 715.007812,1258.163940   C718.586670,1258.259033 721.334290,1258.507812 722.748657,1262.621216   C726.627869,1273.903076 730.885681,1285.054443 734.948181,1296.273926   C735.655029,1298.225952 737.013428,1300.625122 732.690796,1300.730469  M720.932190,1280.541992   C719.408447,1276.453857 717.884705,1272.365723 716.360901,1268.277466   C715.911316,1268.253296 715.461731,1268.229126 715.012085,1268.205078   C713.242676,1273.439819 711.473267,1278.674561 709.411499,1284.774414   C713.521729,1284.774414 716.624329,1284.958984 719.668030,1284.617676   C720.271484,1284.549927 720.648682,1282.464600 720.932190,1280.541992  z"/>
<path fill="#E26FA0" opacity="1.000000" stroke="none" d=" M260.315918,1282.591675   C264.060638,1275.875244 267.594360,1269.490601 271.192474,1263.142700   C273.656921,1258.794922 280.946808,1256.286377 285.245392,1258.614014   C286.254120,1259.160156 286.811646,1261.322632 286.843628,1262.757690   C287.002502,1269.883423 286.916138,1277.014526 286.916138,1284.371826   C288.576202,1284.770386 289.961395,1285.102905 292.707123,1285.762085   C291.597046,1288.279419 290.764557,1290.542603 289.611145,1292.628296   C289.011597,1293.712280 287.056732,1294.497559 287.073334,1295.392456   C287.139557,1298.964844 286.457123,1300.930298 282.153046,1300.859253   C277.531006,1300.782715 278.286255,1297.843140 278.154053,1295.101685   C278.130463,1294.612061 277.971008,1294.129028 277.695007,1292.741943   C274.115112,1292.741943 270.372772,1292.742310 266.630432,1292.741821   C258.313263,1292.740845 257.302277,1291.215454 260.315918,1282.591675  M270.920410,1285.034302   C273.360168,1285.034302 275.799957,1285.034302 278.347534,1285.034302   C278.347534,1278.159302 278.347534,1271.915527 278.347534,1265.671631   C274.178558,1271.178467 270.980042,1276.933472 267.979034,1282.789429   C267.820648,1283.098511 269.334412,1284.264648 270.920410,1285.034302  z"/>
<path fill="#E26D9F" opacity="1.000000" stroke="none" d=" M246.498917,1293.137451   C249.115463,1299.497192 248.345901,1300.708252 242.113617,1300.727661   C236.118607,1300.746338 230.119461,1300.855713 224.130737,1300.660889   C222.162811,1300.596924 220.221817,1299.706055 218.268524,1299.193115   C219.083694,1296.668457 219.256805,1293.604736 220.836960,1291.722168   C225.211609,1286.510132 230.237640,1281.850098 234.861511,1276.838501   C236.176285,1275.413452 237.458969,1273.652466 237.935303,1271.830811   C238.686859,1268.956665 238.350204,1265.947510 234.707520,1265.111816   C231.500549,1264.376221 228.645370,1265.028442 227.584747,1268.720459   C227.133423,1270.291626 226.940216,1271.936890 226.643951,1273.474487   C226.254440,1273.701294 225.934509,1274.048706 225.703629,1273.997192   C223.285767,1273.457275 220.882187,1272.853760 218.474640,1272.267700   C219.556046,1268.876099 219.780350,1264.769653 221.892365,1262.237793   C226.695343,1256.479858 237.652634,1256.577515 243.278015,1261.651367   C248.479675,1266.343018 248.069962,1273.588013 242.129730,1280.250000   C238.596405,1284.212646 234.946838,1288.071533 230.370667,1293.039795   C236.347809,1293.039795 241.205963,1293.039795 246.498917,1293.137451  z"/>
<path fill="#E26B9E" opacity="1.000000" stroke="none" d=" M1074.479004,1258.331055   C1075.874634,1260.596436 1076.818970,1262.825073 1078.221069,1266.133545   C1072.749512,1266.133545 1068.952759,1266.325562 1065.184204,1266.081665   C1061.124146,1265.818726 1061.090332,1268.247070 1061.086548,1271.164307   C1061.083008,1273.967163 1061.309570,1276.144897 1065.012451,1275.906860   C1068.118042,1275.707397 1071.246704,1275.865967 1074.680908,1275.865967   C1074.680908,1278.354370 1074.680908,1280.281372 1074.680908,1283.132324   C1071.663940,1283.132324 1068.581665,1283.277466 1065.519531,1283.092163   C1062.348877,1282.900391 1060.876465,1283.990479 1061.090698,1287.335815   C1061.281860,1290.320068 1060.974976,1293.336426 1061.170288,1296.320190   C1061.380005,1299.525146 1060.210083,1300.833740 1056.910400,1300.784302   C1053.635498,1300.735107 1052.104492,1299.792969 1052.164185,1296.165771   C1052.347778,1285.015015 1052.322998,1273.857910 1052.175293,1262.706055   C1052.131714,1259.422241 1053.403687,1258.209229 1056.548340,1258.258179   C1062.373535,1258.348877 1068.201172,1258.290649 1074.479004,1258.331055  z"/>
<path fill="#E26E9F" opacity="1.000000" stroke="none" d=" M1098.319336,1276.845825   C1094.559692,1270.846191 1091.008179,1265.161377 1087.140869,1258.971069   C1092.798340,1257.723877 1096.802246,1257.492798 1099.145508,1262.993774   C1100.403809,1265.947876 1102.573730,1268.513672 1104.501099,1271.517822   C1110.604126,1267.167236 1110.221924,1254.911377 1122.504639,1259.099976   C1120.588989,1262.467041 1119.196167,1266.182739 1116.747803,1268.972046   C1110.333496,1276.279297 1109.075806,1284.668701 1109.686035,1293.944580   C1110.166382,1301.246460 1109.482056,1301.500366 1100.865234,1300.102417   C1100.865234,1295.330566 1101.132812,1290.398560 1100.762695,1285.514771   C1100.548584,1282.689819 1099.306763,1279.942871 1098.319336,1276.845825  z"/>
<path fill="#E26B9E" opacity="1.000000" stroke="none" d=" M357.484161,1298.668457   C354.406525,1299.758667 351.534790,1300.526978 348.663055,1301.295288   C348.274139,1300.796387 347.885223,1300.297485 347.496307,1299.798584   C353.395599,1288.887695 359.294922,1277.976929 365.635651,1266.249756   C358.819824,1266.249756 352.805756,1266.249756 346.969788,1266.249756   C344.997711,1259.073242 345.532867,1258.292969 351.911804,1258.279175   C358.060059,1258.265869 364.208710,1258.237671 370.356567,1258.288330   C375.856384,1258.333618 377.541687,1261.312744 374.864929,1266.341553   C369.176086,1277.029175 363.419098,1287.680420 357.484161,1298.668457  z"/>
<path fill="#E374A3" opacity="1.000000" stroke="none" d=" M548.042236,1274.122559   C548.042236,1283.075928 548.042236,1291.543823 548.042236,1300.384521   C545.003906,1300.384521 542.435425,1300.384521 539.061829,1300.384521   C539.061829,1293.609253 539.061829,1286.849121 539.061829,1280.089111   C539.061829,1278.755859 539.061829,1277.422729 539.061829,1276.089478   C539.061829,1266.806885 539.061829,1266.806885 529.956726,1265.811523   C527.899414,1259.218872 528.587891,1258.244995 535.359009,1258.235962   C542.654419,1258.226196 549.949768,1258.233765 557.585571,1258.233765   C557.585571,1260.969238 557.585571,1263.190918 557.585571,1265.970703   C552.274841,1265.865845 546.159607,1265.192017 548.042236,1274.122559  z"/>
<path fill="#E26C9E" opacity="1.000000" stroke="none" d=" M993.870483,1288.967773   C993.870422,1282.974243 993.600769,1277.458496 993.954285,1271.983154   C994.248108,1267.432251 992.820923,1265.399170 988.115295,1266.097046   C987.007568,1266.261353 985.832703,1265.973145 984.751709,1265.897461   C982.852478,1259.171021 983.443848,1258.293823 989.787781,1258.274292   C995.119324,1258.257690 1000.450989,1258.264160 1005.782593,1258.272583   C1012.553101,1258.283325 1012.718628,1258.490601 1011.636719,1265.419189   C1011.363708,1265.594116 1011.099609,1265.890381 1010.810669,1265.917114   C1002.132935,1266.718384 1002.132751,1266.714355 1002.132507,1275.526489   C1002.132324,1282.524170 1001.996399,1289.525635 1002.188843,1296.518066   C1002.282715,1299.928101 1000.802979,1300.790894 997.711426,1300.786255   C994.538513,1300.781616 993.658508,1299.320068 993.841797,1296.458740   C993.990601,1294.135742 993.871094,1291.795532 993.870483,1288.967773  z"/>
<path fill="#E26EA0" opacity="1.000000" stroke="none" d=" M318.088623,1276.046631   C320.732971,1270.812866 323.562225,1266.054810 325.609802,1260.981323   C327.604034,1256.039917 330.863159,1255.120483 335.962097,1256.533447   C335.250031,1258.068481 334.619141,1259.551147 333.889191,1260.983276   C325.810059,1276.837646 317.550507,1292.603394 309.726318,1308.582275   C307.393799,1313.345825 303.936157,1311.655640 299.536377,1312.085815   C305.953247,1299.631836 311.942322,1288.008057 318.088623,1276.046631  z"/>
<path fill="#E374A3" opacity="1.000000" stroke="none" d=" M1034.937500,1290.927734   C1034.937500,1292.080811 1034.937744,1292.744995 1034.937500,1293.409302   C1034.935303,1301.295044 1034.739258,1301.460938 1026.369141,1300.256348   C1026.369141,1286.509399 1026.369141,1272.698975 1026.369141,1258.559814   C1029.117676,1258.559814 1031.677734,1258.559814 1034.937500,1258.559814   C1034.937500,1269.307983 1034.937500,1279.873413 1034.937500,1290.927734  z"/>
</svg>